<?xml version="1.0" standalone="no"?>
<!DOCTYPE svg PUBLIC "-//W3C//DTD SVG 20010904//EN"
 "http://www.w3.org/TR/2001/REC-SVG-20010904/DTD/svg10.dtd">
<svg version="1.0" xmlns="http://www.w3.org/2000/svg"
 width="1280.000000pt" height="853.000000pt" viewBox="0 0 1280.000000 853.000000"
 preserveAspectRatio="xMidYMid meet">
<metadata>
Created by potrace 1.15, written by Peter Selinger 2001-2017
</metadata>
<g transform="translate(0.000000,853.000000) scale(0.100000,-0.100000)"
fill="black" stroke="none">
<path d="M184 8483 c74 -147 261 -356 414 -466 170 -122 382 -213 592 -253
142 -27 380 -25 528 4 365 73 684 276 898 572 43 59 114 174 114 184 0 3 -138
6 -306 6 l-306 0 -52 -47 c-97 -88 -225 -158 -363 -199 -67 -20 -118 -27 -218
-31 -153 -6 -271 14 -400 67 -86 37 -233 130 -279 179 l-30 31 -308 0 -308 0
24 -47z"/>
<path d="M4203 8453 c15 -224 162 -394 379 -439 125 -26 262 4 366 80 118 87
182 204 190 347 l5 89 -473 0 -473 0 6 -77z"/>
<path d="M6445 8503 c12 -51 104 -223 167 -316 163 -238 443 -448 722 -542
161 -54 256 -69 456 -69 200 -1 286 11 444 61 401 126 752 453 906 843 l20 50
-278 0 -279 0 -39 -57 c-85 -123 -236 -249 -378 -313 -135 -61 -205 -75 -386
-75 -192 0 -250 12 -399 81 -153 72 -277 174 -375 312 l-38 52 -275 0 -275 0
7 -27z"/>
<path d="M9946 8500 c41 -42 89 -48 133 -18 61 41 53 48 -60 48 l-104 0 31
-30z"/>
<path d="M11300 8483 c1 -164 112 -370 259 -477 118 -87 244 -128 391 -129
186 0 326 59 460 193 118 118 177 240 195 403 l6 57 -114 0 -114 0 -12 -67
c-34 -187 -173 -324 -360 -354 -222 -35 -451 135 -479 356 l-7 60 -113 3 -112
3 0 -48z"/>
<path d="M5855 8374 c-72 -37 -108 -93 -108 -169 0 -108 79 -185 189 -185 147
0 233 164 151 289 -47 70 -160 102 -232 65z m160 -33 c47 -27 75 -76 75 -133
0 -59 -19 -98 -63 -132 -78 -60 -190 -34 -234 54 -28 55 -29 92 -3 144 43 88
139 116 225 67z"/>
<path d="M10075 8333 c-198 -72 -306 -283 -246 -481 48 -158 181 -267 343
-279 303 -23 513 286 382 563 -32 67 -103 138 -178 177 -53 27 -73 31 -156 34
-73 3 -107 -1 -145 -14z m242 -144 c77 -37 143 -141 143 -226 0 -90 -60 -186
-141 -227 -166 -83 -368 36 -369 218 0 74 19 124 70 178 79 86 191 108 297 57z"/>
<path d="M3128 8330 c-78 -23 -128 -95 -128 -181 0 -91 62 -163 157 -184 70
-14 170 41 199 112 61 145 -78 298 -228 253z m151 -49 c131 -94 51 -304 -110
-289 -124 12 -185 145 -116 249 47 71 156 90 226 40z"/>
<path d="M9370 8268 c-117 -60 -148 -205 -64 -298 122 -135 337 -56 338 125 0
74 -38 135 -106 169 -64 32 -110 33 -168 4z"/>
<path d="M3719 8117 c-312 -106 -336 -532 -39 -684 49 -25 65 -28 155 -28 87
0 107 3 157 27 79 37 142 98 181 177 30 61 32 73 31 161 0 74 -5 105 -21 140
-50 108 -127 178 -235 212 -79 24 -148 22 -229 -5z"/>
<path d="M5273 8039 c-214 -20 -418 -159 -511 -349 -55 -111 -72 -184 -72
-300 0 -115 17 -189 69 -295 96 -194 282 -326 503 -355 338 -45 657 188 724
529 28 141 10 267 -59 411 -32 69 -55 100 -121 166 -44 44 -106 94 -136 111
-118 67 -253 94 -397 82z m187 -241 c111 -33 215 -121 264 -220 81 -165 48
-357 -83 -489 -208 -207 -552 -148 -683 118 -32 65 -33 72 -33 183 0 109 2
118 32 181 39 79 130 169 206 204 91 42 204 51 297 23z"/>
<path d="M6358 7891 c-77 -25 -147 -71 -207 -137 -249 -272 -92 -714 277 -776
233 -39 466 114 528 347 29 109 11 251 -46 350 -35 61 -130 154 -185 183 -107
54 -258 68 -367 33z"/>
<path d="M2065 7835 c-159 -30 -320 -96 -452 -187 -85 -58 -232 -209 -288
-293 -88 -133 -151 -295 -175 -447 -20 -123 -8 -351 24 -467 205 -741 1064
-1060 1704 -634 590 392 662 1243 146 1732 -144 137 -307 227 -503 278 -124
32 -336 40 -456 18z m390 -405 c249 -77 439 -272 502 -515 28 -110 24 -297 -9
-397 -41 -122 -91 -204 -187 -298 -145 -144 -304 -210 -506 -210 -405 0 -725
317 -725 717 0 360 249 659 602 723 82 14 243 4 323 -20z"/>
<path d="M11026 7839 c-374 -55 -713 -314 -863 -660 -130 -301 -121 -654 25
-944 249 -498 820 -736 1352 -563 163 53 340 166 462 296 512 545 354 1429
-317 1764 -197 99 -442 139 -659 107z m274 -390 c161 -26 277 -86 400 -209
145 -144 210 -302 210 -508 0 -122 -18 -205 -65 -307 -118 -256 -371 -415
-659 -415 -128 0 -207 19 -325 76 -76 37 -109 61 -176 127 -183 182 -257 410
-211 651 29 150 94 272 202 380 167 167 395 242 624 205z"/>
<path d="M3153 7811 c-39 -25 -53 -49 -53 -96 0 -50 53 -105 102 -105 101 0
150 116 79 184 -38 36 -87 43 -128 17z"/>
<path d="M12270 7764 c-73 -32 -112 -90 -114 -169 -1 -90 63 -167 156 -189 77
-18 184 50 208 131 45 150 -108 289 -250 227z m146 -30 c50 -24 77 -68 82
-133 4 -61 -17 -105 -69 -144 -64 -47 -164 -28 -217 41 -35 47 -38 135 -6 179
52 70 135 92 210 57z"/>
<path d="M285 7673 c-44 -23 -74 -53 -96 -95 -58 -113 25 -259 156 -274 42 -5
58 -1 105 23 44 23 60 39 83 83 24 47 28 63 23 105 -15 128 -163 215 -271 158z"/>
<path d="M945 7645 c-22 -8 -52 -29 -68 -47 -95 -113 -19 -278 129 -278 124 0
202 131 147 247 -33 70 -130 107 -208 78z m110 -51 c115 -54 76 -224 -50 -224
-56 0 -110 43 -119 96 -10 48 19 104 64 126 43 22 63 22 105 2z"/>
<path d="M9107 7529 c-123 -29 -205 -122 -214 -244 -9 -111 36 -201 130 -259
67 -41 170 -48 245 -16 58 25 125 92 149 148 23 54 21 156 -4 213 -52 116
-188 186 -306 158z"/>
<path d="M9692 7489 c-65 -32 -97 -87 -97 -164 0 -50 5 -69 28 -103 62 -95
199 -111 280 -34 42 40 60 80 60 137 0 142 -142 227 -271 164z m175 -30 c37
-23 73 -91 73 -140 -1 -76 -84 -159 -160 -159 -40 0 -113 42 -137 79 -27 40
-31 117 -9 159 43 84 150 112 233 61z"/>
<path d="M12733 7372 c-162 -84 -255 -239 -255 -422 1 -136 50 -249 151 -343
45 -42 136 -97 161 -97 7 0 10 145 10 445 0 245 -3 445 -7 445 -5 0 -32 -13
-60 -28z"/>
<path d="M7640 7333 c-28 -10 -69 -56 -75 -83 -9 -40 18 -96 54 -114 50 -26
88 -21 127 18 58 58 42 141 -32 172 -35 15 -49 16 -74 7z"/>
<path d="M3503 7305 c-37 -16 -63 -60 -63 -106 0 -47 56 -99 107 -99 46 0 77
20 99 62 44 85 -53 183 -143 143z"/>
<path d="M8210 7269 c-162 -32 -311 -176 -355 -344 -64 -249 97 -517 346 -574
112 -26 254 -5 351 52 54 31 149 130 176 182 49 97 65 230 41 334 -56 243
-306 399 -559 350z"/>
<path d="M4335 7256 c-74 -34 -118 -123 -96 -196 32 -109 143 -160 241 -110
53 27 83 72 88 134 5 66 -15 115 -63 151 -43 34 -122 44 -170 21z m125 -51
c42 -22 60 -53 60 -106 0 -38 -6 -53 -28 -77 -51 -55 -131 -55 -176 -1 -49 58
-46 111 9 166 37 37 85 44 135 18z"/>
<path d="M540 7181 c-85 -26 -161 -104 -186 -189 -64 -218 161 -415 372 -327
46 19 112 82 136 129 32 62 36 161 9 221 -34 76 -66 111 -132 144 -64 32 -139
40 -199 22z"/>
<path d="M7087 7076 c-91 -25 -178 -118 -197 -211 -27 -129 40 -260 160 -314
68 -31 171 -29 238 5 174 87 209 322 67 453 -75 69 -174 94 -268 67z m148
-105 c161 -73 140 -303 -31 -341 -130 -29 -252 96 -215 221 23 75 103 139 176
139 17 0 48 -9 70 -19z"/>
<path d="M3778 6994 c-76 -41 -74 -159 2 -199 50 -26 97 -20 136 19 29 29 34
41 34 81 0 40 -5 52 -34 81 -27 27 -42 34 -72 34 -22 -1 -51 -7 -66 -16z m122
-23 c57 -41 46 -131 -20 -163 -69 -33 -140 11 -140 86 1 47 14 69 56 91 33 17
67 13 104 -14z"/>
<path d="M9589 6957 c-116 -61 -118 -229 -4 -294 138 -78 303 66 241 210 -7
18 -26 44 -42 59 -57 53 -125 62 -195 25z m156 -59 c106 -98 -7 -259 -135
-193 -77 40 -79 168 -2 209 48 26 98 20 137 -16z"/>
<path d="M6140 6905 c-151 -48 -227 -234 -156 -379 49 -100 132 -150 246 -151
65 0 82 4 128 29 120 67 172 205 127 337 -45 133 -206 209 -345 164z"/>
<path d="M4787 6646 c-138 -51 -170 -234 -58 -329 126 -105 316 -16 316 148 0
133 -134 227 -258 181z"/>
<path d="M5473 6585 c-61 -37 -88 -86 -88 -161 0 -49 5 -68 27 -101 47 -71
151 -103 231 -69 57 23 117 111 117 171 0 60 -60 148 -117 171 -52 22 -122 17
-170 -11z m182 -24 c16 -9 40 -35 52 -57 61 -107 -15 -238 -137 -238 -91 0
-151 58 -158 151 -5 72 21 117 88 151 51 26 103 24 155 -7z"/>
<path d="M3855 6556 c-112 -27 -217 -111 -265 -213 -91 -194 -13 -420 180
-517 237 -118 514 22 560 285 36 204 -102 405 -308 448 -65 14 -102 13 -167
-3z m201 -154 c90 -47 138 -126 138 -227 0 -78 -15 -118 -68 -173 -51 -55
-101 -76 -181 -77 -82 0 -130 20 -186 77 -128 133 -66 363 112 417 49 15 139
6 185 -17z"/>
<path d="M870 6537 c-51 -27 -90 -90 -90 -147 0 -87 83 -170 170 -170 87 0
170 83 170 170 0 87 -83 170 -170 170 -20 0 -56 -10 -80 -23z m140 -43 c105
-63 62 -224 -60 -224 -90 0 -149 102 -104 179 34 58 108 78 164 45z"/>
<path d="M6812 6513 c-47 -23 -84 -75 -89 -127 -15 -129 107 -228 225 -181
106 43 143 162 79 255 -44 65 -142 89 -215 53z m138 -48 c87 -45 74 -176 -21
-215 -68 -29 -159 32 -159 106 0 42 22 87 52 108 28 20 90 20 128 1z"/>
<path d="M9250 6504 c-230 -61 -412 -243 -470 -470 -24 -94 -26 -235 -5 -319
24 -96 88 -214 154 -287 317 -345 875 -260 1076 164 37 78 65 198 65 279 0 83
-29 199 -72 289 -33 70 -56 100 -127 170 -96 95 -186 147 -301 174 -82 20
-247 19 -320 0z m343 -251 c171 -81 271 -268 240 -449 -32 -186 -172 -325
-357 -356 -177 -29 -365 70 -447 238 -29 58 -34 80 -37 159 -6 137 25 222 117
318 93 97 173 129 316 124 88 -2 108 -6 168 -34z"/>
<path d="M230 6263 c-60 -9 -119 -26 -172 -50 l-58 -26 0 -145 0 -144 41 37
c53 48 133 84 215 98 179 31 366 -70 447 -240 30 -64 32 -74 32 -183 0 -107
-2 -119 -29 -175 -81 -164 -232 -252 -415 -243 -98 5 -155 26 -238 89 l-53 40
0 -141 0 -141 53 -24 c182 -85 426 -70 604 37 73 43 179 149 222 221 62 105
83 179 88 307 9 211 -43 347 -187 491 -70 70 -102 94 -170 127 -122 58 -266
83 -380 65z"/>
<path d="M12455 6263 c-11 -3 -32 -14 -47 -25 -104 -73 -100 -221 8 -284 85
-50 197 -17 238 69 62 131 -58 275 -199 240z m101 -59 c42 -20 64 -59 64 -115
0 -33 -6 -47 -34 -75 -28 -28 -42 -34 -75 -34 -23 0 -55 7 -70 15 -30 15 -61
69 -61 105 0 54 65 120 118 120 13 0 39 -7 58 -16z"/>
<path d="M7228 6191 c-158 -100 -88 -351 99 -351 68 0 110 18 150 63 29 33 53
90 53 127 0 65 -58 152 -117 176 -57 24 -133 18 -185 -15z"/>
<path d="M5740 6150 c-376 -68 -715 -287 -930 -601 -237 -346 -314 -763 -214
-1168 136 -553 590 -975 1157 -1078 126 -23 372 -22 492 1 303 58 562 193 775
406 198 197 331 441 395 725 25 108 31 388 12 511 -34 210 -104 395 -216 566
-218 331 -532 547 -921 633 -120 27 -418 30 -550 5z m377 -491 c220 -29 397
-119 553 -278 102 -105 170 -215 216 -349 113 -328 35 -690 -200 -940 -95 -99
-172 -157 -287 -212 -143 -68 -219 -84 -404 -84 -145 1 -168 3 -250 28 -324
99 -554 328 -651 651 -25 82 -27 105 -28 250 0 185 16 261 84 404 56 116 114
194 214 288 203 190 480 279 753 242z"/>
<path d="M7931 6071 c-67 -26 -129 -73 -175 -135 -50 -68 -69 -140 -64 -240 3
-68 10 -91 37 -144 41 -75 103 -135 179 -170 48 -22 71 -27 147 -27 80 0 97 3
157 32 84 40 142 97 181 181 28 59 32 77 31 152 0 152 -70 267 -202 332 -57
28 -79 33 -152 36 -65 2 -98 -2 -139 -17z"/>
<path d="M4574 6026 c-42 -19 -64 -52 -64 -99 0 -51 52 -107 99 -107 77 0 133
68 111 134 -21 66 -87 98 -146 72z"/>
<path d="M1163 5851 c-42 -30 -73 -90 -73 -139 0 -15 9 -45 19 -68 48 -106
176 -132 265 -54 45 40 60 79 54 141 -9 91 -74 149 -168 149 -47 0 -64 -5 -97
-29z m144 -26 c12 -3 34 -20 48 -36 77 -92 -27 -232 -138 -186 -43 18 -77 68
-77 113 0 43 39 97 80 111 34 11 42 11 87 -2z"/>
<path d="M12710 5799 c-386 -210 -652 -580 -736 -1024 -23 -120 -24 -366 -1
-492 55 -301 189 -556 406 -773 119 -118 207 -185 344 -260 l77 -42 0 300 0
300 -34 26 c-55 41 -159 179 -204 269 -62 123 -92 241 -99 377 -12 266 74 500
257 693 l80 85 0 291 c0 160 -3 291 -7 291 -5 0 -42 -19 -83 -41z"/>
<path d="M10292 5767 c-61 -34 -74 -118 -27 -167 70 -74 185 -28 185 73 0 31
-7 46 -34 73 -37 37 -81 44 -124 21z"/>
<path d="M3470 5724 c-77 -33 -114 -97 -108 -186 7 -98 83 -168 183 -168 101
0 176 69 183 168 10 145 -126 243 -258 186z m151 -30 c99 -50 114 -181 30
-257 -69 -63 -161 -58 -224 12 -46 51 -56 104 -29 163 42 94 134 128 223 82z"/>
<path d="M11823 5570 c-69 -42 -63 -151 10 -186 73 -35 157 16 157 95 0 43
-20 75 -60 96 -39 20 -69 19 -107 -5z"/>
<path d="M1630 5444 c-229 -60 -417 -249 -475 -479 -19 -76 -19 -234 0 -310
104 -410 560 -620 935 -430 212 107 360 348 360 586 0 83 -29 199 -72 289 -33
68 -57 100 -127 170 -96 95 -185 147 -301 174 -81 20 -247 19 -320 0z m348
-254 c208 -97 298 -351 199 -562 -77 -165 -264 -267 -439 -240 -146 22 -266
109 -330 239 -32 65 -33 72 -33 183 0 109 2 118 32 181 39 80 130 169 207 205
108 49 251 47 364 -6z"/>
<path d="M4085 5446 c-39 -18 -80 -62 -99 -108 -52 -124 42 -261 179 -261 109
0 196 88 195 197 -1 66 -61 152 -123 175 -39 15 -116 13 -152 -3z"/>
<path d="M10338 5440 c-108 -57 -133 -207 -50 -300 88 -99 252 -78 312 40 35
69 23 165 -29 224 -49 55 -162 73 -233 36z"/>
<path d="M2702 5384 c-181 -90 -111 -365 92 -364 66 1 152 61 175 123 6 16 11
48 11 72 0 81 -39 141 -115 176 -55 26 -102 24 -163 -7z"/>
<path d="M11149 5356 c-64 -17 -128 -57 -176 -109 -55 -60 -80 -112 -95 -195
-29 -170 72 -339 239 -402 82 -31 205 -26 285 12 225 105 283 403 114 586 -93
101 -236 144 -367 108z"/>
<path d="M7663 5335 c-47 -28 -93 -108 -93 -159 1 -75 76 -169 145 -182 94
-17 170 20 212 104 29 59 28 102 -3 167 -42 89 -171 123 -261 70z m167 -17
c65 -34 85 -67 85 -141 0 -49 -5 -69 -23 -95 -31 -43 -77 -66 -132 -66 -55 0
-101 23 -132 66 -18 26 -23 46 -23 93 0 73 27 118 89 146 54 24 83 24 136 -3z"/>
<path d="M8608 5240 c-146 -46 -193 -205 -95 -317 39 -44 82 -63 142 -63 60 0
103 19 142 63 59 67 68 160 22 233 -39 63 -145 106 -211 84z"/>
<path d="M9005 5089 c-106 -31 -149 -174 -80 -264 36 -48 85 -68 151 -63 64 5
110 37 135 92 43 94 9 183 -86 227 -43 20 -73 22 -120 8z m116 -62 c106 -71
60 -217 -68 -217 -96 0 -149 116 -86 190 46 55 99 64 154 27z"/>
<path d="M3363 5081 c-200 -52 -278 -300 -142 -455 55 -62 108 -88 192 -94 84
-6 143 15 205 72 57 52 84 106 90 182 9 115 -49 219 -151 271 -55 27 -139 38
-194 24z m142 -110 c72 -33 105 -86 105 -168 0 -97 -78 -173 -179 -173 -105 0
-181 76 -181 181 0 129 136 215 255 160z"/>
<path d="M9902 5049 c-39 -12 -72 -60 -72 -107 0 -51 54 -102 108 -102 75 0
132 82 101 145 -26 54 -82 79 -137 64z"/>
<path d="M7875 4861 c-106 -26 -163 -105 -153 -212 16 -167 232 -229 341 -99
25 29 47 86 47 120 0 61 -54 146 -109 174 -36 18 -90 25 -126 17z"/>
<path d="M9398 4826 c-125 -34 -198 -133 -198 -265 0 -288 389 -375 515 -116
24 48 27 64 23 127 -4 84 -26 135 -76 186 -66 65 -174 94 -264 68z"/>
<path d="M10348 4797 c-94 -27 -165 -97 -194 -193 -29 -96 -8 -185 61 -262 62
-69 126 -95 219 -90 152 8 254 107 264 255 13 193 -166 341 -350 290z m147
-106 c46 -21 79 -54 94 -94 16 -42 13 -114 -5 -154 -34 -70 -129 -113 -205
-93 -51 14 -114 71 -130 117 -27 83 14 183 93 222 53 26 100 27 153 2z"/>
<path d="M2598 4785 c-31 -17 -58 -62 -58 -95 0 -54 57 -110 112 -110 62 0
116 69 104 133 -13 68 -97 106 -158 72z"/>
<path d="M190 4767 c-77 -25 -120 -83 -120 -160 0 -80 50 -145 127 -166 82
-23 180 35 203 120 34 126 -88 246 -210 206z m122 -68 c32 -23 52 -78 43 -119
-9 -39 -56 -86 -95 -94 -69 -13 -140 46 -140 116 0 104 106 157 192 97z"/>
<path d="M635 4661 c-92 -57 -127 -157 -86 -246 35 -76 95 -115 176 -115 55 0
92 14 129 48 97 91 82 240 -32 309 -48 30 -143 32 -187 4z"/>
<path d="M3945 4646 c-42 -18 -65 -57 -65 -109 0 -54 26 -91 75 -107 71 -23
142 22 151 96 11 88 -82 156 -161 120z m122 -41 c34 -39 31 -98 -6 -136 -64
-63 -171 -16 -171 77 0 16 13 39 35 61 32 32 39 35 78 30 28 -4 49 -14 64 -32z"/>
<path d="M8399 4637 c-53 -15 -94 -43 -138 -92 -46 -53 -64 -101 -64 -175 -1
-117 63 -214 171 -262 65 -29 181 -22 245 15 91 54 136 134 137 242 0 87 -29
153 -88 207 -73 66 -172 90 -263 65z m146 -106 c62 -28 115 -104 115 -166 0
-29 -24 -88 -47 -115 -68 -82 -198 -86 -270 -8 -70 74 -68 180 4 252 57 56
127 70 198 37z"/>
<path d="M8960 4523 c-28 -32 -32 -41 -27 -77 12 -87 110 -126 176 -70 32 26
48 76 37 112 -4 11 -18 32 -33 46 -20 21 -35 26 -73 26 -43 0 -52 -4 -80 -37z"/>
<path d="M2564 4300 c-35 -14 -64 -59 -64 -101 0 -115 162 -148 207 -42 38 92
-51 180 -143 143z"/>
<path d="M2991 4274 c-129 -34 -240 -127 -297 -248 -66 -140 -65 -276 2 -414
169 -347 664 -349 837 -4 69 139 70 279 2 420 -95 199 -328 304 -544 246z"/>
<path d="M11212 4245 c-68 -35 -105 -93 -105 -168 -2 -179 211 -263 332 -132
109 119 37 303 -126 321 -39 4 -58 1 -101 -21z"/>
<path d="M0 4047 l0 -197 48 0 c27 0 83 -9 126 -20 244 -62 435 -239 515 -476
111 -331 -46 -714 -359 -874 -76 -38 -180 -69 -261 -76 l-69 -7 0 -195 0 -195
87 6 c534 40 965 463 1024 1003 36 336 -100 695 -351 927 -186 172 -426 279
-662 294 l-98 6 0 -196z"/>
<path d="M10048 4141 c-216 -69 -356 -297 -318 -520 43 -255 284 -433 532
-392 434 71 549 632 178 866 -103 65 -271 84 -392 46z"/>
<path d="M9134 4054 c-65 -32 -84 -118 -38 -173 37 -44 91 -58 138 -36 87 42
88 174 1 211 -43 18 -62 17 -101 -2z m118 -33 c27 -24 33 -36 33 -71 0 -35 -6
-47 -33 -71 -56 -50 -129 -33 -158 37 -12 29 -12 39 0 68 29 70 102 87 158 37z"/>
<path d="M4204 4042 c-115 -41 -184 -138 -183 -257 1 -106 50 -191 138 -239
186 -100 404 28 405 240 0 184 -187 318 -360 256z"/>
<path d="M7728 4049 c-137 -20 -279 -123 -342 -249 -190 -380 171 -796 573
-658 189 64 314 241 314 443 0 290 -255 507 -545 464z"/>
<path d="M1370 3951 c-59 -32 -93 -83 -98 -149 -6 -90 32 -154 111 -187 132
-55 265 42 255 187 -5 66 -40 121 -99 150 -45 24 -125 23 -169 -1z m143 -15
c44 -18 93 -76 101 -120 15 -81 -38 -162 -121 -185 -75 -21 -156 23 -187 101
-51 125 83 256 207 204z"/>
<path d="M8670 3913 c-31 -12 -70 -58 -76 -88 -7 -41 17 -98 50 -120 14 -10
44 -17 66 -17 108 2 155 127 76 201 -24 23 -87 36 -116 24z m111 -42 c46 -47
36 -121 -21 -154 -100 -60 -203 71 -121 154 23 23 38 29 71 29 33 0 48 -6 71
-29z"/>
<path d="M9360 3762 c-49 -24 -76 -80 -60 -127 22 -65 90 -93 155 -63 51 23
72 109 39 157 -15 20 -69 51 -91 51 -4 0 -24 -8 -43 -18z"/>
<path d="M2105 3681 c-79 -20 -153 -79 -191 -154 -10 -17 -19 -65 -22 -105 -4
-66 -2 -78 28 -138 50 -103 131 -152 250 -153 163 -2 295 143 276 303 -20 169
-181 286 -341 247z m143 -112 c104 -51 134 -190 60 -275 -41 -47 -82 -66 -138
-66 -99 0 -170 63 -178 157 -2 30 -2 65 2 79 15 62 104 125 175 126 19 0 54
-10 79 -21z"/>
<path d="M11913 3536 c-234 -57 -392 -290 -356 -525 54 -346 441 -515 733
-320 128 86 200 225 200 391 0 301 -284 525 -577 454z"/>
<path d="M10979 3501 c-278 -89 -365 -442 -159 -648 27 -27 75 -63 107 -79 54
-27 66 -29 168 -29 98 0 116 3 165 26 85 41 144 99 187 187 36 71 38 82 38
166 -1 71 -6 104 -24 148 -26 67 -104 157 -167 194 -92 54 -213 68 -315 35z
m226 -145 c98 -45 152 -138 143 -249 -6 -71 -23 -111 -69 -156 -103 -104 -257
-104 -359 -1 -85 84 -101 196 -43 301 63 116 206 162 328 105z"/>
<path d="M1462 3480 c-116 -71 -19 -245 105 -186 73 35 79 144 10 186 -41 25
-74 25 -115 0z"/>
<path d="M6943 3445 c-37 -16 -63 -60 -63 -106 0 -47 56 -99 107 -99 46 0 77
20 99 62 44 85 -53 183 -143 143z"/>
<path d="M8948 3450 c-592 -70 -1039 -622 -978 -1211 29 -289 138 -510 349
-712 168 -160 367 -257 598 -292 229 -35 436 -3 648 99 375 180 613 538 632
952 15 324 -98 616 -327 844 -244 243 -580 359 -922 320z m305 -407 c146 -36
253 -99 360 -213 82 -87 142 -195 173 -310 24 -88 25 -271 1 -360 -53 -200
-191 -370 -378 -467 -104 -54 -206 -77 -334 -77 -120 1 -201 20 -310 73 -197
97 -340 276 -391 488 -26 112 -16 291 23 400 53 147 140 264 258 348 178 127
392 170 598 118z"/>
<path d="M4030 3378 c-111 -31 -168 -151 -121 -253 31 -68 102 -115 171 -115
39 0 98 24 128 53 61 56 74 150 32 227 -40 71 -132 110 -210 88z m143 -51 c93
-71 87 -197 -13 -264 -62 -43 -167 -23 -212 39 -22 32 -34 101 -24 142 8 34
54 86 91 102 45 21 117 12 158 -19z"/>
<path d="M1495 3117 c-42 -19 -92 -79 -106 -128 -23 -75 14 -160 89 -206 118
-73 282 24 282 167 0 42 -46 123 -86 149 -43 30 -133 39 -179 18z m156 -33
c99 -50 104 -207 9 -271 -70 -48 -165 -34 -216 32 -107 140 50 321 207 239z"/>
<path d="M2594 3110 c-170 -55 -284 -186 -321 -367 -20 -98 -7 -189 42 -289
140 -288 522 -352 749 -127 202 201 183 534 -41 705 -88 66 -157 90 -273 95
-74 2 -108 -1 -156 -17z"/>
<path d="M6697 3119 c-206 -27 -406 -173 -496 -361 -51 -108 -65 -172 -65
-288 0 -116 14 -180 66 -288 46 -98 153 -217 242 -271 258 -155 575 -122 795
84 168 157 240 400 187 629 -74 319 -398 539 -729 495z m218 -244 c105 -29
205 -116 258 -225 30 -61 32 -70 32 -180 0 -111 -1 -118 -33 -183 -83 -168
-274 -269 -449 -238 -344 63 -478 470 -236 718 110 113 266 152 428 108z"/>
<path d="M5642 3044 c-67 -40 -102 -128 -82 -203 28 -107 153 -169 253 -127
41 17 91 74 107 121 26 78 -16 177 -90 216 -52 28 -134 25 -188 -7z m187 -21
c95 -71 95 -207 0 -270 -33 -22 -47 -25 -97 -21 -67 5 -101 25 -133 81 -43 77
-8 180 75 218 50 24 116 20 155 -8z"/>
<path d="M4944 2966 c-185 -47 -309 -237 -275 -421 22 -118 88 -209 193 -266
60 -33 67 -34 168 -34 93 0 112 3 162 27 238 111 285 431 91 608 -89 81 -225
116 -339 86z"/>
<path d="M3569 2927 c-125 -47 -192 -140 -192 -267 0 -109 55 -199 156 -252
60 -32 184 -32 244 0 101 53 156 143 156 252 0 108 -51 194 -144 244 -62 34
-162 44 -220 23z m171 -107 c129 -66 127 -256 -2 -319 -56 -27 -110 -27 -166
0 -128 62 -131 252 -5 318 50 27 123 27 173 1z"/>
<path d="M1874 2846 c-46 -46 -48 -101 -5 -148 25 -28 36 -33 76 -33 40 0 51
5 76 33 49 55 36 138 -28 171 -42 21 -83 13 -119 -23z"/>
<path d="M10607 2720 c-46 -14 -98 -60 -118 -104 -74 -163 93 -331 256 -257
138 62 152 253 25 337 -41 27 -118 39 -163 24z"/>
<path d="M7735 2701 c-54 -23 -79 -95 -51 -149 17 -34 61 -62 96 -62 53 0 110
57 110 110 0 74 -85 129 -155 101z"/>
<path d="M12765 2674 c-40 -43 -37 -105 6 -149 l29 -30 0 103 c0 56 -2 102 -5
102 -3 0 -17 -12 -30 -26z"/>
<path d="M1284 2602 c-82 -66 -42 -191 61 -192 50 0 83 22 102 67 18 43 4 93
-34 123 -32 25 -100 26 -129 2z"/>
<path d="M12168 2526 c-125 -35 -198 -134 -198 -270 0 -283 390 -367 515 -111
24 48 27 64 23 127 -4 84 -26 135 -76 186 -66 65 -174 94 -264 68z"/>
<path d="M1740 2455 c-115 -33 -202 -107 -254 -215 -28 -59 -31 -74 -31 -165
0 -88 3 -107 27 -157 75 -161 254 -258 421 -228 285 52 420 372 258 611 -40
59 -136 131 -199 149 -66 19 -163 21 -222 5z m205 -149 c94 -43 148 -129 148
-231 -1 -76 -31 -143 -85 -190 -168 -143 -418 -29 -418 191 0 34 7 78 15 97
55 131 212 193 340 133z"/>
<path d="M11198 2441 c-110 -36 -193 -97 -253 -186 -72 -108 -96 -232 -71
-353 77 -370 524 -509 790 -245 142 141 180 351 95 532 -39 86 -86 140 -160
190 -117 78 -274 102 -401 62z"/>
<path d="M7635 2316 c-59 -26 -83 -75 -65 -131 16 -47 53 -75 102 -75 52 0
108 51 108 99 0 47 -27 91 -65 107 -41 17 -42 17 -80 0z"/>
<path d="M4195 2271 c-66 -16 -126 -74 -144 -138 -13 -47 -13 -59 -1 -105 22
-79 102 -138 186 -138 226 0 267 319 49 379 -44 12 -47 12 -90 2z"/>
<path d="M5740 2269 c-60 -24 -110 -101 -110 -170 0 -177 228 -255 335 -114
30 38 44 117 31 169 -8 32 -61 93 -97 112 -32 16 -121 18 -159 3z m150 -31
c89 -45 115 -165 53 -238 -14 -17 -38 -37 -54 -45 -36 -19 -112 -19 -149 0
-90 46 -112 174 -43 247 56 61 121 72 193 36z"/>
<path d="M2623 2014 c-102 -51 -61 -204 56 -204 24 0 42 9 67 34 87 87 -13
226 -123 170z"/>
<path d="M7508 2020 c-86 -26 -138 -93 -138 -179 0 -99 65 -174 163 -187 60
-9 141 29 176 81 28 42 38 118 22 168 -15 45 -78 102 -128 116 -43 12 -57 13
-95 1z m121 -40 c102 -52 114 -204 20 -271 -38 -27 -104 -35 -152 -19 -72 23
-120 116 -99 189 32 104 136 150 231 101z"/>
<path d="M955 2006 c-38 -17 -90 -72 -104 -109 -54 -142 83 -296 228 -257 136
36 193 205 104 310 -53 64 -155 89 -228 56z"/>
<path d="M10431 1944 c-36 -26 -54 -79 -41 -120 16 -48 53 -74 107 -74 81 0
126 78 91 155 -23 51 -109 72 -157 39z"/>
<path d="M2988 1800 c-151 -80 -128 -306 37 -355 169 -51 311 137 216 287 -52
81 -168 113 -253 68z"/>
<path d="M5180 1789 c-237 -61 -419 -246 -475 -482 -19 -80 -19 -225 1 -307
27 -115 79 -205 174 -301 69 -70 101 -94 170 -128 111 -54 208 -75 325 -68
277 16 499 186 591 452 24 70 28 95 28 200 0 106 -4 130 -29 205 -112 328
-454 515 -785 429z m294 -229 c149 -46 260 -177 288 -339 41 -237 -144 -470
-387 -488 -181 -14 -343 83 -422 253 -25 53 -28 70 -28 169 0 103 2 114 32
177 94 199 306 293 517 228z"/>
<path d="M1398 1754 c-35 -19 -48 -43 -48 -93 0 -46 35 -95 76 -105 62 -16
134 38 134 100 0 91 -83 142 -162 98z"/>
<path d="M261 1719 c-127 -25 -221 -141 -221 -272 0 -69 16 -117 59 -173 125
-165 386 -134 475 56 28 62 28 168 0 231 -53 115 -187 183 -313 158z m143
-114 c58 -28 91 -85 91 -160 0 -75 -32 -132 -92 -161 -47 -23 -126 -24 -170
-1 -99 52 -125 196 -50 281 56 65 139 80 221 41z"/>
<path d="M12440 1689 c-109 -33 -170 -159 -126 -262 17 -39 71 -92 109 -106
104 -40 229 24 258 131 38 141 -102 278 -241 237z"/>
<path d="M3653 1666 c-186 -60 -302 -248 -272 -437 20 -126 108 -242 227 -297
50 -24 69 -27 162 -27 96 0 110 3 165 29 79 39 149 110 188 194 29 61 32 76
32 162 0 88 -3 101 -33 162 -43 88 -106 152 -190 191 -55 26 -81 32 -152 34
-53 2 -101 -2 -127 -11z m198 -138 c123 -36 197 -187 157 -320 -16 -53 -88
-132 -140 -153 -145 -60 -315 28 -349 180 -43 193 137 352 332 293z"/>
<path d="M6314 1566 c-17 -8 -44 -30 -59 -51 -64 -83 -35 -209 58 -254 53 -26
90 -26 142 -2 101 46 133 152 74 248 -40 64 -140 91 -215 59z m136 -51 c53
-27 75 -100 47 -155 -16 -32 -73 -70 -104 -70 -75 0 -130 65 -120 141 11 84
98 125 177 84z"/>
<path d="M10533 1524 c-149 -55 -220 -238 -147 -380 84 -165 303 -202 433 -73
134 133 96 362 -74 444 -52 25 -156 30 -212 9z"/>
<path d="M7833 1508 c-46 -12 -73 -51 -73 -105 0 -62 42 -103 105 -103 34 0
50 6 74 29 26 24 31 37 31 74 0 77 -63 125 -137 105z"/>
<path d="M1624 1440 c-631 -67 -1139 -522 -1273 -1142 -11 -53 -24 -142 -27
-197 l-7 -101 255 0 255 0 6 88 c27 389 325 730 723 829 95 23 324 23 416 0
369 -92 636 -365 713 -730 8 -38 15 -85 15 -105 0 -20 3 -47 6 -60 l6 -22 249
0 249 0 0 59 c0 140 -45 342 -110 498 -244 584 -853 948 -1476 883z"/>
<path d="M7218 1438 c-165 -21 -301 -156 -329 -327 -39 -242 167 -467 410
-448 106 8 176 40 252 116 87 87 112 149 113 277 1 85 -1 95 -37 166 -78 158
-231 239 -409 216z m172 -158 c50 -25 114 -99 128 -148 51 -169 -69 -332 -243
-332 -235 0 -342 291 -163 444 77 67 190 81 278 36z"/>
<path d="M11125 1312 c-40 -25 -83 -77 -91 -108 -4 -14 -4 -49 -2 -79 8 -101
96 -173 199 -163 168 16 228 231 94 334 -50 38 -153 46 -200 16z m174 -29 c99
-74 96 -216 -6 -276 -113 -65 -263 39 -239 166 21 112 158 174 245 110z"/>
<path d="M12045 1206 c-358 -59 -669 -285 -827 -601 -83 -164 -118 -312 -118
-491 l0 -114 194 0 193 0 5 123 c4 97 11 138 32 202 70 206 223 370 421 449
37 15 110 34 163 43 82 14 110 14 187 4 174 -23 315 -92 435 -212 l70 -70 0
259 0 259 -82 41 c-160 78 -293 112 -473 117 -72 3 -152 -1 -200 -9z"/>
<path d="M8262 1103 c-50 -32 -92 -108 -92 -162 1 -71 59 -156 123 -180 39
-15 111 -14 150 3 41 17 91 74 107 121 16 47 7 117 -21 161 -52 84 -183 111
-267 57z"/>
<path d="M9453 1116 c-104 -34 -185 -106 -232 -205 -22 -48 -26 -69 -26 -151
0 -87 3 -101 32 -161 39 -79 102 -140 181 -177 49 -23 70 -27 152 -27 82 0
103 4 152 27 79 37 142 98 181 177 29 60 32 74 32 161 0 87 -3 101 -32 161
-63 128 -176 200 -318 206 -49 2 -96 -3 -122 -11z"/>
<path d="M0 560 c0 -273 3 -350 13 -350 23 0 112 58 149 97 20 21 49 63 65 93
26 50 28 64 28 160 -1 125 -18 172 -92 251 -43 46 -125 99 -153 99 -7 0 -10
-116 -10 -350z"/>
<path d="M6393 891 c-183 -68 -283 -267 -229 -453 61 -212 303 -325 502 -234
75 34 117 69 158 129 126 186 64 430 -136 538 -56 29 -73 33 -153 36 -70 3
-101 -1 -142 -16z"/>
<path d="M4129 807 c-127 -36 -206 -151 -197 -286 11 -157 135 -261 292 -249
145 12 250 127 249 274 -1 177 -174 308 -344 261z"/>
<path d="M10735 781 c-120 -54 -148 -208 -55 -301 145 -145 387 20 301 205
-45 98 -151 139 -246 96z m151 -27 c50 -24 77 -68 82 -133 3 -46 0 -62 -20
-90 -39 -58 -72 -76 -138 -76 -63 0 -95 16 -134 69 -29 39 -29 133 0 173 52
70 135 92 210 57z"/>
<path d="M8145 489 c-236 -30 -465 -139 -633 -302 -68 -67 -152 -166 -152
-180 0 -4 122 -7 270 -7 l271 0 57 29 c123 62 271 88 407 71 84 -10 225 -54
271 -85 19 -12 70 -15 299 -15 319 0 298 -12 188 115 -236 273 -618 419 -978
374z"/>
<path d="M5803 378 c-75 -20 -100 -122 -44 -179 42 -41 106 -41 150 0 26 24
31 37 31 74 0 77 -63 125 -137 105z"/>
<path d="M10265 376 c-152 -48 -264 -178 -282 -325 l-6 -51 72 0 c66 0 71 2
71 21 0 76 66 171 145 209 68 33 174 26 241 -15 56 -35 108 -111 118 -175 l6
-40 65 0 65 0 0 40 c0 90 -65 203 -155 273 -90 68 -238 95 -340 63z"/>
<path d="M3624 306 c-40 -40 -45 -83 -14 -133 46 -75 168 -54 195 35 9 31 -12
88 -42 112 -42 33 -98 27 -139 -14z"/>
<path d="M5060 209 c-89 -15 -188 -69 -256 -141 l-59 -63 197 -3 c108 -1 287
-1 397 0 l201 3 -45 51 c-105 121 -275 180 -435 153z"/>
</g>
</svg>
